# xmcd
#
# Track frame offsets:
#	182
#	15977
#	31200
#	43662
#	54482
#	64995
#	75807
#	88930
#	103012
#	114162
#	127310
#	147020
#	162742
#	175075
#	188752
#	202087
#
# Disc length: 2873 seconds
#
# Revision: 3
# Processed by: cddbd v1.5.2PL0 Copyright (c) Steve Scherf et al.
# Submitted via: audiograbber 1.83.01
#
DISCID=d60b3710
DTITLE=Manuela - Olé Mallorca Und 14 Goldene Hits
DYEAR=1900
DGENRE=Schlager
TTITLE0=Für immer (You got it)
TTITLE1=Olé Mallorca
TTITLE2=Schuld war nur der Bossa Nova
TTITLE3=Ich geh' noch zur Schule
TTITLE4=Schwimmen lernt man im See
TTITLE5=Schneemann
TTITLE6=Küsse unterm Regenbogen
TTITLE7=Love and Kisses
TTITLE8=Lord Leicester aus Manchester
TTITLE9=Monsieur Dupont
TTITLE10=Wenn es Nacht wird in Harlem
TTITLE11=Guantanamera
TTITLE12=Helicopter US-Navy 66
TTITLE13=Alles und noch viel mehr
TTITLE14=Der schwarze Mann auf dem Dach
TTITLE15=Prost, Onkel Albert!
EXTD=
EXTT0=
EXTT1=
EXTT2=
EXTT3=
EXTT4=
EXTT5=
EXTT6=
EXTT7=
EXTT8=
EXTT9=
EXTT10=
EXTT11=
EXTT12=
EXTT13=
EXTT14=
EXTT15=
PLAYORDER=
